<?xml version="1.0" encoding="UTF-8"?>
<svg id="Capa_1" data-name="Capa 1" xmlns="http://www.w3.org/2000/svg" viewBox="0 0 1366 768">
  <defs>
    <style>
      .cls-1 {
        fill: #ed1c24;
      }

      .cls-2 {
        fill: #ff931e;
      }

      .cls-3 {
        letter-spacing: .03em;
      }

      .cls-4 {
        fill: #fff;
        font-family: Futura-CondensedMedium, Futura;
        font-size: 12px;
        font-weight: 500;
      }
    </style>
  </defs>
  <g>
    <rect class="cls-2" x=".5" y=".5" width="1365" height="767"/>
    <path class="cls-1" d="M1365,1V767H1V1H1365m1-1H0V768H1366V0h0Z"/>
  </g>
  <text class="cls-4" transform="translate(0 14.46)"><tspan x="0" y="0">FRAMES </tspan><tspan class="cls-3" x="32.31" y="0">C</tspan><tspan x="37.22" y="0">ABIN FRAMES </tspan><tspan class="cls-3" x="90.07" y="0">C</tspan><tspan x="94.98" y="0">ABIN FRAMES </tspan><tspan class="cls-3" x="147.83" y="0">C</tspan><tspan x="152.74" y="0">ABIN FRAMES </tspan><tspan class="cls-3" x="0" y="14.4">C</tspan><tspan x="4.91" y="14.4">ABIN FRAMES </tspan><tspan class="cls-3" x="57.76" y="14.4">C</tspan><tspan x="62.67" y="14.4">ABIN FRAMES </tspan><tspan class="cls-3" x="115.52" y="14.4">C</tspan><tspan x="120.43" y="14.4">ABIN FRAMES </tspan><tspan class="cls-3" x="173.29" y="14.4">C</tspan><tspan x="178.2" y="14.4">ABIN </tspan><tspan x="0" y="28.8">FRAMES </tspan><tspan class="cls-3" x="32.31" y="28.8">C</tspan><tspan x="37.22" y="28.8">ABIN FRAMES </tspan><tspan class="cls-3" x="90.07" y="28.8">C</tspan><tspan x="94.98" y="28.8">ABIN FRAMES </tspan><tspan class="cls-3" x="147.83" y="28.8">C</tspan><tspan x="152.74" y="28.8">ABIN FRAMES </tspan><tspan class="cls-3" x="0" y="43.2">C</tspan><tspan x="4.91" y="43.2">ABIN FRAMES </tspan><tspan class="cls-3" x="57.76" y="43.2">C</tspan><tspan x="62.67" y="43.2">ABIN FRAMES </tspan><tspan class="cls-3" x="115.52" y="43.2">C</tspan><tspan x="120.43" y="43.2">ABIN FRAMES </tspan><tspan class="cls-3" x="173.29" y="43.2">C</tspan><tspan x="178.2" y="43.2">ABIN </tspan><tspan x="0" y="57.6">FRAMES </tspan><tspan class="cls-3" x="32.31" y="57.6">C</tspan><tspan x="37.22" y="57.6">ABIN FRAMES </tspan><tspan class="cls-3" x="90.07" y="57.6">C</tspan><tspan x="94.98" y="57.6">ABIN FRAMES </tspan><tspan class="cls-3" x="147.83" y="57.6">C</tspan><tspan x="152.74" y="57.6">ABIN FRAMES </tspan><tspan class="cls-3" x="0" y="72">C</tspan><tspan x="4.91" y="72">ABIN FRAMES </tspan><tspan class="cls-3" x="57.76" y="72">C</tspan><tspan x="62.67" y="72">ABIN FRAMES </tspan><tspan class="cls-3" x="115.52" y="72">C</tspan><tspan x="120.43" y="72">ABIN FRAMES </tspan><tspan class="cls-3" x="173.29" y="72">C</tspan><tspan x="178.2" y="72">ABIN </tspan><tspan x="0" y="86.4">FRAMES </tspan><tspan class="cls-3" x="32.31" y="86.4">C</tspan><tspan x="37.22" y="86.4">ABIN FRAMES </tspan><tspan class="cls-3" x="90.07" y="86.4">C</tspan><tspan x="94.98" y="86.4">ABIN FRAMES </tspan><tspan class="cls-3" x="147.83" y="86.4">C</tspan><tspan x="152.74" y="86.4">ABIN FRAMES </tspan><tspan class="cls-3" x="0" y="100.8">C</tspan><tspan x="4.91" y="100.8">ABIN FRAMES </tspan><tspan class="cls-3" x="57.76" y="100.8">C</tspan><tspan x="62.67" y="100.8">ABIN FRAMES </tspan><tspan class="cls-3" x="115.52" y="100.8">C</tspan><tspan x="120.43" y="100.8">ABIN FRAMES </tspan><tspan class="cls-3" x="173.29" y="100.8">C</tspan><tspan x="178.2" y="100.8">ABIN </tspan><tspan x="0" y="115.2">FRAMES </tspan><tspan class="cls-3" x="32.31" y="115.2">C</tspan><tspan x="37.22" y="115.2">ABIN FRAMES </tspan><tspan class="cls-3" x="90.07" y="115.2">C</tspan><tspan x="94.98" y="115.2">ABIN FRAMES </tspan><tspan class="cls-3" x="147.83" y="115.2">C</tspan><tspan x="152.74" y="115.2">ABIN FRAMES </tspan><tspan class="cls-3" x="0" y="129.6">C</tspan><tspan x="4.91" y="129.6">ABIN FRAMES </tspan><tspan class="cls-3" x="57.76" y="129.6">C</tspan><tspan x="62.67" y="129.6">ABIN FRAMES </tspan><tspan class="cls-3" x="115.52" y="129.6">C</tspan><tspan x="120.43" y="129.6">ABIN FRAMES </tspan><tspan class="cls-3" x="173.29" y="129.6">C</tspan><tspan x="178.2" y="129.6">ABIN </tspan><tspan x="0" y="144">FRAMES </tspan><tspan class="cls-3" x="32.31" y="144">C</tspan><tspan x="37.22" y="144">ABIN FRAMES </tspan><tspan class="cls-3" x="90.07" y="144">C</tspan><tspan x="94.98" y="144">ABIN FRAMES </tspan><tspan class="cls-3" x="147.83" y="144">C</tspan><tspan x="152.74" y="144">ABIN FRAMES </tspan><tspan class="cls-3" x="0" y="158.4">C</tspan><tspan x="4.91" y="158.4">ABIN FRAMES </tspan><tspan class="cls-3" x="57.76" y="158.4">C</tspan><tspan x="62.67" y="158.4">ABIN FRAMES </tspan><tspan class="cls-3" x="115.52" y="158.4">C</tspan><tspan x="120.43" y="158.4">ABIN FRAMES </tspan><tspan class="cls-3" x="173.29" y="158.4">C</tspan><tspan x="178.2" y="158.4">ABIN </tspan><tspan x="0" y="172.8">FRAMES </tspan><tspan class="cls-3" x="32.31" y="172.8">C</tspan><tspan x="37.22" y="172.8">ABIN FRAMES </tspan><tspan class="cls-3" x="90.07" y="172.8">C</tspan><tspan x="94.98" y="172.8">ABIN FRAMES </tspan><tspan class="cls-3" x="147.83" y="172.8">C</tspan><tspan x="152.74" y="172.8">ABIN FRAMES </tspan><tspan class="cls-3" x="0" y="187.2">C</tspan><tspan x="4.91" y="187.2">ABIN FRAMES </tspan><tspan class="cls-3" x="57.76" y="187.2">C</tspan><tspan x="62.67" y="187.2">ABIN FRAMES </tspan><tspan class="cls-3" x="115.52" y="187.2">C</tspan><tspan x="120.43" y="187.2">ABIN FRAMES </tspan><tspan class="cls-3" x="173.29" y="187.2">C</tspan><tspan x="178.2" y="187.2">ABIN </tspan><tspan x="0" y="201.6">FRAMES </tspan><tspan class="cls-3" x="32.31" y="201.6">C</tspan><tspan x="37.22" y="201.6">ABIN FRAMES </tspan><tspan class="cls-3" x="90.07" y="201.6">C</tspan><tspan x="94.98" y="201.6">ABIN FRAMES </tspan><tspan class="cls-3" x="147.83" y="201.6">C</tspan><tspan x="152.74" y="201.6">ABIN FRAMES </tspan><tspan class="cls-3" x="0" y="216">C</tspan><tspan x="4.91" y="216">ABIN FRAMES </tspan><tspan class="cls-3" x="57.76" y="216">C</tspan><tspan x="62.67" y="216">ABIN FRAMES </tspan><tspan class="cls-3" x="115.52" y="216">C</tspan><tspan x="120.43" y="216">ABIN FRAMES </tspan><tspan class="cls-3" x="173.29" y="216">C</tspan><tspan x="178.2" y="216">ABIN </tspan><tspan x="0" y="230.4">FRAMES </tspan><tspan class="cls-3" x="32.31" y="230.4">C</tspan><tspan x="37.22" y="230.4">ABIN FRAMES </tspan><tspan class="cls-3" x="90.07" y="230.4">C</tspan><tspan x="94.98" y="230.4">ABIN FRAMES </tspan><tspan class="cls-3" x="147.83" y="230.4">C</tspan><tspan x="152.74" y="230.4">ABIN FRAMES </tspan><tspan class="cls-3" x="0" y="244.8">C</tspan><tspan x="4.91" y="244.8">ABIN FRAMES </tspan><tspan class="cls-3" x="57.76" y="244.8">C</tspan><tspan x="62.67" y="244.8">ABIN FRAMES </tspan><tspan class="cls-3" x="115.52" y="244.8">C</tspan><tspan x="120.43" y="244.8">ABIN FRAMES </tspan><tspan class="cls-3" x="173.29" y="244.8">C</tspan><tspan x="178.2" y="244.8">ABIN </tspan><tspan x="0" y="259.2">FRAMES </tspan><tspan class="cls-3" x="32.31" y="259.2">C</tspan><tspan x="37.22" y="259.2">ABIN FRAMES </tspan><tspan class="cls-3" x="90.07" y="259.2">C</tspan><tspan x="94.98" y="259.2">ABIN FRAMES </tspan><tspan class="cls-3" x="147.83" y="259.2">C</tspan><tspan x="152.74" y="259.2">ABIN FRAMES </tspan><tspan class="cls-3" x="0" y="273.6">C</tspan><tspan x="4.91" y="273.6">ABIN FRAMES </tspan><tspan class="cls-3" x="57.76" y="273.6">C</tspan><tspan x="62.67" y="273.6">ABIN FRAMES </tspan><tspan class="cls-3" x="115.52" y="273.6">C</tspan><tspan x="120.43" y="273.6">ABIN FRAMES </tspan><tspan class="cls-3" x="173.29" y="273.6">C</tspan><tspan x="178.2" y="273.6">ABIN </tspan><tspan x="0" y="288">FRAMES </tspan><tspan class="cls-3" x="32.31" y="288">C</tspan><tspan x="37.22" y="288">ABIN FRAMES </tspan><tspan class="cls-3" x="90.07" y="288">C</tspan><tspan x="94.98" y="288">ABIN FRAMES </tspan><tspan class="cls-3" x="147.83" y="288">C</tspan><tspan x="152.74" y="288">ABIN FRAMES </tspan><tspan class="cls-3" x="0" y="302.4">C</tspan><tspan x="4.91" y="302.4">ABIN FRAMES </tspan><tspan class="cls-3" x="57.76" y="302.4">C</tspan><tspan x="62.67" y="302.4">ABIN FRAMES </tspan><tspan class="cls-3" x="115.52" y="302.4">C</tspan><tspan x="120.43" y="302.4">ABIN FRAMES </tspan><tspan class="cls-3" x="173.29" y="302.4">C</tspan><tspan x="178.2" y="302.4">ABIN </tspan><tspan x="0" y="316.8">FRAMES </tspan><tspan class="cls-3" x="32.31" y="316.8">C</tspan><tspan x="37.22" y="316.8">ABIN FRAMES </tspan><tspan class="cls-3" x="90.07" y="316.8">C</tspan><tspan x="94.98" y="316.8">ABIN FRAMES </tspan><tspan class="cls-3" x="147.83" y="316.8">C</tspan><tspan x="152.74" y="316.8">ABIN FRAMES </tspan><tspan class="cls-3" x="0" y="331.2">C</tspan><tspan x="4.91" y="331.2">ABIN FRAMES </tspan><tspan class="cls-3" x="57.76" y="331.2">C</tspan><tspan x="62.67" y="331.2">ABIN FRAMES </tspan><tspan class="cls-3" x="115.52" y="331.2">C</tspan><tspan x="120.43" y="331.2">ABIN FRAMES </tspan><tspan class="cls-3" x="173.29" y="331.2">C</tspan><tspan x="178.2" y="331.2">ABIN </tspan><tspan x="0" y="345.6">FRAMES </tspan><tspan class="cls-3" x="32.31" y="345.6">C</tspan><tspan x="37.22" y="345.6">ABIN FRAMES </tspan><tspan class="cls-3" x="90.07" y="345.6">C</tspan><tspan x="94.98" y="345.6">ABIN FRAMES </tspan><tspan class="cls-3" x="147.83" y="345.6">C</tspan><tspan x="152.74" y="345.6">ABIN FRAMES </tspan><tspan class="cls-3" x="0" y="360">C</tspan><tspan x="4.91" y="360">ABIN FRAMES </tspan><tspan class="cls-3" x="57.76" y="360">C</tspan><tspan x="62.67" y="360">ABIN FRAMES </tspan><tspan class="cls-3" x="115.52" y="360">C</tspan><tspan x="120.43" y="360">ABIN FRAMES </tspan><tspan class="cls-3" x="173.29" y="360">C</tspan><tspan x="178.2" y="360">ABIN </tspan><tspan x="0" y="374.4">FRAMES </tspan><tspan class="cls-3" x="32.31" y="374.4">C</tspan><tspan x="37.22" y="374.4">ABIN FRAMES </tspan><tspan class="cls-3" x="90.07" y="374.4">C</tspan><tspan x="94.98" y="374.4">ABIN FRAMES </tspan><tspan class="cls-3" x="147.83" y="374.4">C</tspan><tspan x="152.74" y="374.4">ABIN FRAMES </tspan><tspan class="cls-3" x="0" y="388.8">C</tspan><tspan x="4.91" y="388.8">ABIN FRAMES </tspan><tspan class="cls-3" x="57.76" y="388.8">C</tspan><tspan x="62.67" y="388.8">ABIN FRAMES </tspan><tspan class="cls-3" x="115.52" y="388.8">C</tspan><tspan x="120.43" y="388.8">ABIN FRAMES </tspan><tspan class="cls-3" x="173.29" y="388.8">C</tspan><tspan x="178.2" y="388.8">ABIN </tspan><tspan x="0" y="403.2">FRAMES </tspan><tspan class="cls-3" x="32.31" y="403.2">C</tspan><tspan x="37.22" y="403.2">ABIN FRAMES </tspan><tspan class="cls-3" x="90.07" y="403.2">C</tspan><tspan x="94.98" y="403.2">ABIN FRAMES </tspan><tspan class="cls-3" x="147.83" y="403.2">C</tspan><tspan x="152.74" y="403.2">ABIN FRAMES </tspan><tspan class="cls-3" x="0" y="417.6">C</tspan><tspan x="4.91" y="417.6">ABIN FRAMES </tspan><tspan class="cls-3" x="57.76" y="417.6">C</tspan><tspan x="62.67" y="417.6">ABIN FRAMES </tspan><tspan class="cls-3" x="115.52" y="417.6">C</tspan><tspan x="120.43" y="417.6">ABIN FRAMES </tspan><tspan class="cls-3" x="173.29" y="417.6">C</tspan><tspan x="178.2" y="417.6">ABIN </tspan><tspan x="0" y="432">FRAMES </tspan><tspan class="cls-3" x="32.31" y="432">C</tspan><tspan x="37.22" y="432">ABIN FRAMES </tspan><tspan class="cls-3" x="90.07" y="432">C</tspan><tspan x="94.98" y="432">ABIN FRAMES </tspan><tspan class="cls-3" x="147.83" y="432">C</tspan><tspan x="152.74" y="432">ABIN FRAMES </tspan><tspan class="cls-3" x="0" y="446.4">C</tspan><tspan x="4.91" y="446.4">ABIN FRAMES </tspan><tspan class="cls-3" x="57.76" y="446.4">C</tspan><tspan x="62.67" y="446.4">ABIN FRAMES </tspan><tspan class="cls-3" x="115.52" y="446.4">C</tspan><tspan x="120.43" y="446.4">ABIN FRAMES </tspan><tspan class="cls-3" x="173.29" y="446.4">C</tspan><tspan x="178.2" y="446.4">ABIN </tspan><tspan x="0" y="460.8">FRAMES </tspan><tspan class="cls-3" x="32.31" y="460.8">C</tspan><tspan x="37.22" y="460.8">ABIN FRAMES </tspan><tspan class="cls-3" x="90.07" y="460.8">C</tspan><tspan x="94.98" y="460.8">ABIN FRAMES </tspan><tspan class="cls-3" x="147.83" y="460.8">C</tspan><tspan x="152.74" y="460.8">ABIN FRAMES </tspan><tspan class="cls-3" x="0" y="475.2">C</tspan><tspan x="4.91" y="475.2">ABIN FRAMES </tspan><tspan class="cls-3" x="57.76" y="475.2">C</tspan><tspan x="62.67" y="475.2">ABIN FRAMES </tspan><tspan class="cls-3" x="115.52" y="475.2">C</tspan><tspan x="120.43" y="475.2">ABIN FRAMES </tspan><tspan class="cls-3" x="173.29" y="475.2">C</tspan><tspan x="178.2" y="475.2">ABIN </tspan><tspan x="0" y="489.6">FRAMES </tspan><tspan class="cls-3" x="32.31" y="489.6">C</tspan><tspan x="37.22" y="489.6">ABIN FRAMES </tspan><tspan class="cls-3" x="90.07" y="489.6">C</tspan><tspan x="94.98" y="489.6">ABIN FRAMES </tspan><tspan class="cls-3" x="147.83" y="489.6">C</tspan><tspan x="152.74" y="489.6">ABIN FRAMES </tspan><tspan class="cls-3" x="0" y="504">C</tspan><tspan x="4.91" y="504">ABIN FRAMES </tspan><tspan class="cls-3" x="57.76" y="504">C</tspan><tspan x="62.67" y="504">ABIN FRAMES </tspan><tspan class="cls-3" x="115.52" y="504">C</tspan><tspan x="120.43" y="504">ABIN FRAMES </tspan><tspan class="cls-3" x="173.29" y="504">C</tspan><tspan x="178.2" y="504">ABIN </tspan><tspan x="0" y="518.4">FRAMES </tspan><tspan class="cls-3" x="32.31" y="518.4">C</tspan><tspan x="37.22" y="518.4">ABIN FRAMES </tspan><tspan class="cls-3" x="90.07" y="518.4">C</tspan><tspan x="94.98" y="518.4">ABIN FRAMES </tspan><tspan class="cls-3" x="147.83" y="518.4">C</tspan><tspan x="152.74" y="518.4">ABIN FRAMES </tspan><tspan class="cls-3" x="0" y="532.8">C</tspan><tspan x="4.91" y="532.8">ABIN FRAMES </tspan><tspan class="cls-3" x="57.76" y="532.8">C</tspan><tspan x="62.67" y="532.8">ABIN FRAMES </tspan><tspan class="cls-3" x="115.52" y="532.8">C</tspan><tspan x="120.43" y="532.8">ABIN FRAMES </tspan><tspan class="cls-3" x="173.29" y="532.8">C</tspan><tspan x="178.2" y="532.8">ABIN </tspan><tspan x="0" y="547.2">FRAMES </tspan><tspan class="cls-3" x="32.31" y="547.2">C</tspan><tspan x="37.22" y="547.2">ABIN FRAMES </tspan><tspan class="cls-3" x="90.07" y="547.2">C</tspan><tspan x="94.98" y="547.2">ABIN FRAMES </tspan><tspan class="cls-3" x="147.83" y="547.2">C</tspan><tspan x="152.74" y="547.2">ABIN FRAMES </tspan><tspan class="cls-3" x="0" y="561.6">C</tspan><tspan x="4.91" y="561.6">ABIN FRAMES </tspan><tspan class="cls-3" x="57.76" y="561.6">C</tspan><tspan x="62.67" y="561.6">ABIN FRAMES </tspan><tspan class="cls-3" x="115.52" y="561.6">C</tspan><tspan x="120.43" y="561.6">ABIN FRAMES </tspan><tspan class="cls-3" x="173.29" y="561.6">C</tspan><tspan x="178.2" y="561.6">ABIN </tspan><tspan x="0" y="576">FRAMES </tspan><tspan class="cls-3" x="32.31" y="576">C</tspan><tspan x="37.22" y="576">ABIN FRAMES </tspan><tspan class="cls-3" x="90.07" y="576">C</tspan><tspan x="94.98" y="576">ABIN FRAMES </tspan><tspan class="cls-3" x="147.83" y="576">C</tspan><tspan x="152.74" y="576">ABIN FRAMES </tspan><tspan class="cls-3" x="0" y="590.4">C</tspan><tspan x="4.91" y="590.4">ABIN FRAMES </tspan><tspan class="cls-3" x="57.76" y="590.4">C</tspan><tspan x="62.67" y="590.4">ABIN FRAMES </tspan><tspan class="cls-3" x="115.52" y="590.4">C</tspan><tspan x="120.43" y="590.4">ABIN FRAMES </tspan><tspan class="cls-3" x="173.29" y="590.4">C</tspan><tspan x="178.2" y="590.4">ABIN </tspan><tspan x="0" y="604.8">FRAMES </tspan><tspan class="cls-3" x="32.31" y="604.8">C</tspan><tspan x="37.22" y="604.8">ABIN FRAMES </tspan><tspan class="cls-3" x="90.07" y="604.8">C</tspan><tspan x="94.98" y="604.8">ABIN FRAMES </tspan><tspan class="cls-3" x="147.83" y="604.8">C</tspan><tspan x="152.74" y="604.8">ABIN FRAMES </tspan><tspan class="cls-3" x="0" y="619.2">C</tspan><tspan x="4.91" y="619.2">ABIN FRAMES </tspan><tspan class="cls-3" x="57.76" y="619.2">C</tspan><tspan x="62.67" y="619.2">ABIN FRAMES </tspan><tspan class="cls-3" x="115.52" y="619.2">C</tspan><tspan x="120.43" y="619.2">ABIN FRAMES </tspan><tspan class="cls-3" x="173.29" y="619.2">C</tspan><tspan x="178.2" y="619.2">ABIN </tspan><tspan x="0" y="633.6">FRAMES </tspan><tspan class="cls-3" x="32.31" y="633.6">C</tspan><tspan x="37.22" y="633.6">ABIN FRAMES </tspan><tspan class="cls-3" x="90.07" y="633.6">C</tspan><tspan x="94.98" y="633.6">ABIN FRAMES </tspan><tspan class="cls-3" x="147.83" y="633.6">C</tspan><tspan x="152.74" y="633.6">ABIN FRAMES </tspan><tspan class="cls-3" x="0" y="648">C</tspan><tspan x="4.91" y="648">ABIN FRAMES </tspan><tspan class="cls-3" x="57.76" y="648">C</tspan><tspan x="62.67" y="648">ABIN FRAMES </tspan><tspan class="cls-3" x="115.52" y="648">C</tspan><tspan x="120.43" y="648">ABIN FRAMES </tspan><tspan class="cls-3" x="173.29" y="648">C</tspan><tspan x="178.2" y="648">ABIN </tspan><tspan x="0" y="662.4">FRAMES </tspan><tspan class="cls-3" x="32.31" y="662.4">C</tspan><tspan x="37.22" y="662.4">ABIN FRAMES </tspan><tspan class="cls-3" x="90.07" y="662.4">C</tspan><tspan x="94.98" y="662.4">ABIN FRAMES </tspan><tspan class="cls-3" x="147.83" y="662.4">C</tspan><tspan x="152.74" y="662.4">ABIN FRAMES </tspan><tspan class="cls-3" x="0" y="676.8">C</tspan><tspan x="4.91" y="676.8">ABIN FRAMES </tspan><tspan class="cls-3" x="57.76" y="676.8">C</tspan><tspan x="62.67" y="676.8">ABIN FRAMES </tspan><tspan class="cls-3" x="115.52" y="676.8">C</tspan><tspan x="120.43" y="676.8">ABIN FRAMES </tspan><tspan class="cls-3" x="173.29" y="676.8">C</tspan><tspan x="178.2" y="676.8">ABIN </tspan><tspan x="0" y="691.2">FRAMES </tspan><tspan class="cls-3" x="32.31" y="691.2">C</tspan><tspan x="37.22" y="691.2">ABIN FRAMES </tspan><tspan class="cls-3" x="90.07" y="691.2">C</tspan><tspan x="94.98" y="691.2">ABIN FRAMES </tspan><tspan class="cls-3" x="147.83" y="691.2">C</tspan><tspan x="152.74" y="691.2">ABIN FRAMES </tspan><tspan class="cls-3" x="0" y="705.6">C</tspan><tspan x="4.91" y="705.6">ABIN FRAMES </tspan><tspan class="cls-3" x="57.76" y="705.6">C</tspan><tspan x="62.67" y="705.6">ABIN FRAMES </tspan><tspan class="cls-3" x="115.52" y="705.6">C</tspan><tspan x="120.43" y="705.6">ABIN FRAMES </tspan><tspan class="cls-3" x="173.29" y="705.6">C</tspan><tspan x="178.2" y="705.6">ABIN </tspan><tspan x="0" y="720">FRAMES </tspan><tspan class="cls-3" x="32.31" y="720">C</tspan><tspan x="37.22" y="720">ABIN FRAMES </tspan><tspan class="cls-3" x="90.07" y="720">C</tspan><tspan x="94.98" y="720">ABIN FRAMES </tspan><tspan class="cls-3" x="147.83" y="720">C</tspan><tspan x="152.74" y="720">ABIN FRAMES </tspan><tspan class="cls-3" x="0" y="734.4">C</tspan><tspan x="4.91" y="734.4">ABIN FRAMES </tspan><tspan class="cls-3" x="57.76" y="734.4">C</tspan><tspan x="62.67" y="734.4">ABIN FRAMES </tspan><tspan class="cls-3" x="115.52" y="734.4">C</tspan><tspan x="120.43" y="734.4">ABIN FRAMES </tspan><tspan class="cls-3" x="173.29" y="734.4">C</tspan><tspan x="178.2" y="734.4">ABIN </tspan><tspan x="0" y="748.8">FRAMES </tspan><tspan class="cls-3" x="32.31" y="748.8">C</tspan><tspan x="37.22" y="748.8">ABIN FRAMES </tspan><tspan class="cls-3" x="90.07" y="748.8">C</tspan><tspan x="94.98" y="748.8">ABIN FRAMES </tspan><tspan class="cls-3" x="147.83" y="748.8">C</tspan><tspan x="152.74" y="748.8">ABIN FRAMES </tspan></text>
</svg>